<svg width="10" height="15" viewBox="0 0 10 15" fill="none" xmlns="http://www.w3.org/2000/svg">
<path d="M9.57528 6.52078C9.2983 5.81539 8.90199 5.19053 8.39773 4.66552L7.98438 4.23552C7.9233 4.17432 7.8267 4.2017 7.79972 4.28867L7.61506 4.88937C7.5 5.26622 7.28835 5.65112 6.98864 6.02959C6.96875 6.05374 6.94602 6.06018 6.9304 6.0618C6.91477 6.06341 6.89062 6.06018 6.86932 6.03764C6.84943 6.01831 6.83949 5.98932 6.84091 5.96034C6.89347 4.99083 6.63778 3.89732 6.07813 2.70718C5.61506 1.71835 4.97159 0.946938 4.16761 0.409041L3.58097 0.0176961C3.50426 -0.033839 3.40625 0.0338007 3.41051 0.13526L3.44176 0.908287C3.46307 1.43652 3.40909 1.90356 3.28125 2.29168C3.125 2.76677 2.90057 3.20804 2.61364 3.60422C2.41193 3.88122 2.18608 4.13084 1.93892 4.34664C1.34091 4.86683 0.848011 5.54483 0.514205 6.30337C0.177557 7.06995 0 7.92833 0 8.78832C0 9.54846 0.132102 10.2845 0.393466 10.9786C0.646307 11.6469 1.0071 12.2492 1.46591 12.7646C1.92614 13.2799 2.46023 13.6858 3.0554 13.9676C3.67188 14.2607 4.32528 14.4089 5 14.4089C5.67472 14.4089 6.32813 14.2607 6.9446 13.9692C7.53977 13.6874 8.07528 13.2831 8.53409 12.7662C8.99432 12.2508 9.35511 11.6485 9.60653 10.9802C9.8679 10.2861 10 9.55007 10 8.78993C10 8.00402 9.85795 7.24066 9.57528 6.52078ZM7.85511 11.9851C7.09233 12.8419 6.07955 13.3121 5 13.3121C3.92045 13.3121 2.90767 12.8419 2.14489 11.9851C1.38494 11.1299 0.965909 9.99618 0.965909 8.78993C0.965909 8.08938 1.10511 7.41781 1.37926 6.79295C1.64631 6.18258 2.04403 5.63663 2.52699 5.2163C2.83239 4.95218 3.11222 4.64458 3.35938 4.30155C3.71449 3.81036 3.9929 3.2628 4.18608 2.67497C4.26278 2.44146 4.32102 2.19183 4.35795 1.9261C4.70028 2.28363 4.98722 2.71524 5.22727 3.22092C5.7017 4.22908 5.92045 5.12611 5.87784 5.88947C5.85795 6.25666 5.98438 6.60613 6.22443 6.85254C6.43324 7.06512 6.70312 7.17302 6.98295 7.15531C7.26278 7.1392 7.51989 6.99909 7.70739 6.76235C7.89631 6.52239 8.05966 6.2776 8.19602 6.02798C8.39489 6.31625 8.56108 6.63029 8.69318 6.96849C8.91903 7.54504 9.03409 8.15863 9.03409 8.78993C9.03409 9.99618 8.61506 11.1316 7.85511 11.9851Z" fill="white"/>
</svg>
